<?xml version="1.0" encoding="UTF-8" standalone="no"?>
<svg
   xmlns:dc="http://purl.org/dc/elements/1.1/"
   xmlns:cc="http://creativecommons.org/ns#"
   xmlns:rdf="http://www.w3.org/1999/02/22-rdf-syntax-ns#"
   xmlns:svg="http://www.w3.org/2000/svg"
   xmlns="http://www.w3.org/2000/svg"
   id="svg8"
   version="1.1"
   height="14mm"
   width="18mm">
  <defs
     id="defs2" />
  <metadata
     id="metadata5">
    <rdf:RDF>
      <cc:Work
         rdf:about="">
        <dc:format>image/svg+xml</dc:format>
        <dc:type
           rdf:resource="http://purl.org/dc/dcmitype/StillImage" />
        <dc:title></dc:title>
      </cc:Work>
    </rdf:RDF>
  </metadata>
  <g
     id="layer1">
    <g
       id="g37"
       transform="matrix(0.35277777,0,0,-0.35277777,-111.90054,131.04948)">
      <g
         id="g39"
         transform="scale(1,-1)">
        <path
           d="m 381.5708,-271.4375 c 0,0 13.15918,-20.35352 13.15918,-20.35352 0,0 14.39014,-7.60546 14.39014,-7.60546 0,0 -11.97022,21.97265 -11.97022,21.97265 0,0 -15.5791,5.98633 -15.5791,5.98633 z m -22.40381,33.33008 c 0,0 -10.84277,0.43164 -10.84277,0.43164 0,0 19.65576,-27.3457 19.65576,-27.3457 0,0 11.47803,-4.26368 11.47803,-4.26368 0,0 -20.29102,31.17774 -20.29102,31.17774 z m -0.67676,-23.38867 c 0,0 8.77295,-3.25782 8.77295,-3.25782 0,0 -19.59619,27.11719 -19.59619,27.11719 0,0 -7.83105,0.30859 -7.83105,0.30859 0,0 18.65429,-24.16796 18.65429,-24.16796 z m 37.57276,-13.9375 c 0,0 -19.98682,36.65039 -19.98682,36.65039 0,0 -15.9873,0.65429 -15.9873,0.65429 0,0 20.33301,-31.5039 20.33301,-31.5039 0,0 15.64111,-5.80078 15.64111,-5.80078 z m 7.41748,35.5625 c 0,0 -25.96826,1.02343 -25.96826,1.02343 0,0 19.88281,-37.07812 19.88281,-37.07812 0,0 22.56787,-8.36328 22.56787,-8.36328 0,0 -16.48242,44.41797 -16.48242,44.41797 z m -20.84326,-45.54688 c 0,0 11.16992,-5.88086 11.16992,-5.88086 0,0 -13.2002,20.23047 -13.2002,20.23047 0,0 -11.458,4.42773 -11.458,4.42773 0,0 13.48828,-18.77734 13.48828,-18.77734 z m -8.79444,4.01953 c 0,0 10.08545,-13.05859 10.08545,-13.05859 0,0 8.6709,-5.34863 8.6709,-5.34863 0,0 -9.84033,13.62988 -9.84033,13.62988 0,0 -8.91602,4.77734 -8.91602,4.77734 z m -0.84179,1.06446 c 0,0 8.91699,-4.69336 8.91699,-4.69336 0,0 -13.48682,18.67382 -13.48682,18.67382 0,0 -8.81396,3.38282 -8.81396,3.38282 0,0 13.38379,-17.36328 13.38379,-17.36328 z m 19.41308,-25.1294 c 0,0 8.32227,-5.57617 8.32227,-5.57617 0,0 -7.52344,10.39307 -7.52344,10.39307 0,0 -8.65088,5.3496 -8.65088,5.3496 0,0 7.85205,-10.1665 7.85205,-10.1665 z m 8.79199,-6.25293 c 0,0 -8.29882,5.59668 -8.29882,5.59668 0,0 6.31054,-8.15771 6.31054,-8.15771 0,0 7.91309,-5.61719 7.91309,-5.61719 0,0 -5.92481,8.17822 -5.92481,8.17822 z m -7.91113,11.47998 c 0,0 10.5586,-6.47705 10.5586,-6.47705 0,0 -9.24756,14.20361 -9.24756,14.20361 -3.70899,1.99024 -7.41895,3.97852 -11.12793,5.96485 0,0 9.81689,-13.69141 9.81689,-13.69141 z m 17.97852,-17.87402 c 0,0 -6.84766,10.51465 -6.84766,10.51465 0,0 -10.51562,6.51904 -10.51562,6.51904 0,0 7.48242,-10.41309 7.48242,-10.41309 0,0 9.88086,-6.6206 9.88086,-6.6206 z m 24.57519,-8.95801 c 0,0 -16.51953,10.24902 -16.51953,10.24902 0,0 5.59375,-10.4331 5.59375,-10.4331 0,0 14.65528,-9.81836 14.65528,-9.81836 0,0 -3.7295,10.00244 -3.7295,10.00244 z m -13.87695,42.04102 c 0,0 35.44141,-13.13916 35.44141,-13.13916 0,0 -1.94629,56.18603 -1.94629,56.18603 0,0 -49.50391,2.00781 -49.50391,2.00781 0,0 16.00879,-45.05468 16.00879,-45.05468 z m 7.62402,-25.15039 c 0,0 -8.79199,23.63281 -8.79199,23.63281 0,0 -22.32373,8.60937 -22.32373,8.60937 0,0 11.84912,-22.07617 11.84912,-22.07617 0,0 19.2666,-10.16601 19.2666,-10.16601 z m -6.82324,22.875 c 0,0 8.46484,-23.73682 8.46484,-23.73682 9.04004,-4.7749 18.08106,-9.55176 27.11817,-14.32715 0,0 -0.84082,24.7002 -0.84082,24.7002 0,0 -34.74219,13.36377 -34.74219,13.36377 z m -18.08105,-19.94385 c 0,0 13.09961,-8.03516 13.09961,-8.03516 0,0 -7.97461,14.63526 -7.97461,14.63526 0,0 -14.30762,7.64453 -14.30762,7.64453 0,0 9.18262,-14.24463 9.18262,-14.24463 z m 6.31347,5.94385 c 0,0 7.85157,-14.63477 7.85157,-14.63477 0,0 16.68457,-10.27002 16.68457,-10.27002 0,0 -5.45313,14.69678 -5.45313,14.69678 0,0 -19.08301,10.20801 -19.08301,10.20801 z m 1.04688,-17.32081 c 0,0 11.9082,-7.99316 11.9082,-7.99316 0,0 -5.67578,10.45313 -5.67578,10.45313 0,0 -13.01855,8.05615 -13.01855,8.05615 0,0 6.78613,-10.51612 6.78613,-10.51612 z m 0.43066,-0.67675 c 0,0 5.22461,-8.07617 5.22461,-8.07617 0,0 10.88477,-7.70704 10.88477,-7.70704 0,0 -4.2627,7.81006 -4.2627,7.81006 0,0 -11.84668,7.97315 -11.84668,7.97315 z m -4.73535,-1.02344 c 3.0752,-2.19482 6.14746,-4.36572 9.24512,-6.54102 0,0 -5.29004,8.09815 -5.29004,8.09815 0,0 -9.83789,6.62012 -9.83789,6.62012 0,0 5.88281,-8.17725 5.88281,-8.17725 z m 34.74414,-24.61865 c 0,0 -2.68652,7.25683 -2.68652,7.25683 0,0 -14.53321,9.77686 -14.53321,9.77686 0,0 4.18262,-7.79004 4.18262,-7.79004 0,0 13.03711,-9.24365 13.03711,-9.24365 z m 16.39746,4.38574 c 0,0 -0.49121,13.89893 -0.49121,13.89893 0,0 -26.70898,14.2871 -26.70898,14.2871 0,0 5.22461,-14.67675 5.22461,-14.67675 0,0 21.97558,-13.50928 21.97558,-13.50928 z m 0.32715,-9.67481 c 0,0 -0.30469,8.896 -0.30469,8.896 0,0 -21.69043,13.42676 -21.69043,13.42676 0,0 3.54785,-9.9419 3.54785,-9.9419 0,0 18.44727,-12.38086 18.44727,-12.38086 z m 0.22656,-6.70214 c 0,0 -0.22656,6.19091 -0.22656,6.19091 0,0 -18.24316,12.27735 -18.24316,12.27735 0,0 2.56347,-7.21533 2.56347,-7.21533 0,0 15.90625,-11.25293 15.90625,-11.25293 z m -121.69629,121.69531 c 0,0 122.98829,0 122.98829,0 0,0 0,-122.98731 0,-122.98731 0,0 -61.63819,43.78418 -61.63819,43.78418 0,0 -61.3501,79.20313 -61.3501,79.20313"
           style="fill:#cb9899;fill-opacity:1;fill-rule:nonzero;stroke:none"
           id="path41" />
        <g
           id="g43"
           transform="scale(1,-1)">
          <text
             transform="matrix(1,0,0,-1,334,281.3335)"
             style="font-variant:normal;font-weight:normal;font-size:36px;font-family:'Trebuchet MS';-inkscape-font-specification:TrebuchetMS;writing-mode:lr-tb;fill:#980f08;fill-opacity:1;fill-rule:nonzero;stroke:none"
             id="text47">
            <tspan
               x="0 24.336"
               y="0"
               id="tspan45">GI</tspan>
          </text>
          <text
             transform="matrix(1,0,0,-1,368.36523,281.3335)"
             style="font-style:italic;font-variant:normal;font-size:36px;font-family:'Trebuchet MS';-inkscape-font-specification:TrebuchetMS-Italic;writing-mode:lr-tb;fill:#980f08;fill-opacity:1;fill-rule:nonzero;stroke:none"
             id="text51">
            <tspan
               x="0 17.316 33.875999 44.928001 64.260002 83.916 100.476"
               y="0"
               id="tspan49">Science</tspan>
          </text>
        </g>
      </g>
    </g>
  </g>
</svg>
